<?xml version="1.0" encoding="utf-8" ?>
<svg baseProfile="full" height="77" shape-rendering="geometricPrecision" version="1.1" viewBox="77 77 718 718"
     width="77" xmlns="http://www.w3.org/2000/svg"
>
    <defs/>
    <path d="M 665.00 627.23 L 652.53 624.00 L 650.50 617.00 L 653.25 606.00 L 625.00 583.76 L 598.00 573.78 L 569.00 571.45 L 566.39 569.00 L 574.00 565.50 L 605.00 568.77 L 628.00 577.76 L 660.00 600.19 L 670.00 596.19 L 669.55 560.00 L 672.77 543.00 L 682.76 520.00 L 699.00 501.84 L 700.24 506.00 L 681.77 535.00 L 675.55 567.00 L 679.82 595.00 L 693.00 602.51 L 694.23 610.00 L 681.00 624.01 L 665.00 627.23 Z M 696.00 790.18 L 691.78 787.00 L 690.45 770.00 L 685.23 757.00 L 664.78 719.00 L 665.76 713.00 L 674.98 702.00 L 665.00 682.99 L 649.00 685.73 L 644.23 718.00 L 633.00 733.06 L 626.88 733.00 L 638.22 716.00 L 641.77 678.00 L 658.00 671.13 L 659.22 668.00 L 653.27 651.00 L 632.00 646.23 L 604.88 628.00 L 611.00 626.78 L 649.00 638.50 L 659.00 631.35 L 678.00 627.52 L 687.00 638.47 L 682.79 629.00 L 684.75 624.00 L 709.24 605.00 L 718.78 573.00 L 723.00 569.32 L 722.45 600.00 L 712.24 621.00 L 727.00 634.92 L 742.00 626.55 L 771.00 643.23 L 799.00 647.74 L 796.00 651.45 L 775.00 652.45 L 745.00 637.34 L 735.12 649.00 L 744.71 667.00 L 764.47 670.00 L 787.76 715.00 L 807.16 734.00 L 802.00 736.19 L 783.53 722.00 L 762.00 679.75 L 750.00 679.55 L 754.45 701.00 L 754.45 721.00 L 750.20 735.00 L 741.00 744.20 L 731.00 746.50 L 718.00 744.20 L 700.00 731.47 L 685.00 715.07 L 675.85 720.00 L 697.23 768.00 L 698.45 785.00 L 696.00 790.18 Z"
          fill="#F5FF00" fill-rule="evenodd" stroke="none"/>
</svg>